Coordinates
version=1
nRows=19
nColumns=27
inDegrees=yes

Units are S.I. units (second, meters, Newtons, ...)
If the header above contains a line with 'inDegrees', this indicates whether rotational values are in degrees (yes) or radians (no).

endheader
time	pelvis_rotation	pelvis_tilt	pelvis_list	pelvis_tx	pelvis_ty	pelvis_tz	hip_flexion_r	hip_adduction_r	hip_rotation_r	knee_angle_r	knee_rotation_r	knee_adduction_r	knee_angle_r_beta	ankle_angle_r	subtalar_angle_r	mtp_angle_r	hip_flexion_l	hip_adduction_l	hip_rotation_l	knee_angle_l	knee_rotation_l	knee_adduction_l	knee_angle_l_beta	ankle_angle_l	subtalar_angle_l	mtp_angle_l
     18.26000000	      3.64102936	    -37.48500813	      4.93251472	     -0.10477721	      0.82527165	     -1.19239882	     79.51015889	    -21.80020890	    -18.59303459	     51.21402834	      2.64223690	      9.46264774	      0.89385342	      4.29617898	      4.38717914	      0.00000000	     75.28459309	    -15.80350694	    -19.23898378	     43.67574345	      2.17857672	     -9.24919123	      0.76228553	      1.24537624	     10.06041907	      0.00000000
     18.26500000	      3.66337049	    -37.58778706	      4.85482097	     -0.10485367	      0.82520859	     -1.19237917	     79.57131604	    -21.79652203	    -18.67623090	     51.20493730	      2.66671373	      9.45696728	      0.89369475	      4.28646473	      4.37852016	      0.00000000	     75.46248068	    -15.82478362	    -19.05056571	     43.73358298	      2.22823783	     -9.24158775	      0.76329502	      1.24764773	      9.97392820	      0.00000000
     18.27000000	      3.88933405	    -37.53400340	      5.04717766	     -0.10519217	      0.82497903	     -1.19256517	     79.62253111	    -22.01392610	    -18.47950673	     51.29417066	      2.68337437	      9.04838172	      0.89525217	      4.38681298	      4.84848720	      0.00000000	     75.45958636	    -15.51658474	    -18.70726993	     43.66446025	      2.23659598	     -8.70148116	      0.76208860	      1.20289568	     10.24317002	      0.00000000
     18.27500000	      3.21112733	    -37.28927319	      5.25278586	     -0.10456353	      0.82539832	     -1.19253166	     79.55620371	    -21.58936907	    -17.75637654	     51.19184385	      2.78128499	      9.45073020	      0.89346623	      4.25211402	      4.21656948	      0.00000000	     74.74037142	    -15.98427258	    -20.05375075	     43.59290579	      2.13916418	     -9.26386745	      0.76083974	      1.27616489	     10.21909894	      0.00000000
     18.28000000	      3.28810561	    -37.31915460	      5.08997038	     -0.10453339	      0.82559650	     -1.19244961	     79.42641430	    -21.59370077	    -18.09265638	     51.09582784	      2.72533914	      9.45140894	      0.89179043	      4.26609912	      4.32460526	      0.00000000	     74.83513577	    -15.96408605	    -19.72081920	     43.55096063	      2.19509276	     -9.25231318	      0.76010766	      1.22254686	     10.11464080	      0.00000000
     18.28500000	      3.17002550	    -37.36526998	      4.97160367	     -0.10505888	      0.82544571	     -1.19229633	     79.49067004	    -21.40759787	    -17.87878824	     51.04012910	      2.76095428	      9.02349870	      0.89081830	      4.23714248	      4.57753990	      0.00000000	     74.95959680	    -16.06950872	    -19.38831348	     43.59910823	      2.27141848	     -8.73127342	      0.76094799	      1.21414622	     10.43347746	      0.00000000
     18.29000000	      3.21945775	    -37.19335469	      4.98003749	     -0.10440000	      0.82616193	     -1.19240273	     79.11719127	    -21.51527457	    -18.26389360	     50.87607857	      2.72007048	      9.45223791	      0.88795508	      4.19117192	      4.36257144	      0.00000000	     74.62676382	    -16.00138704	    -19.69094329	     43.41228604	      2.20360239	     -9.24605831	      0.75768733	      1.15312963	     10.09534688	      0.00000000
     18.29500000	      3.21074666	    -36.38641894	      4.81805429	     -0.10337843	      0.82665762	     -1.19246824	     78.04844967	    -21.55861450	    -18.86335352	     50.73889290	      2.34062472	      9.06077709	      0.88556074	      4.51403611	      5.69556925	      0.00000000	     73.75978102	    -15.89401601	    -19.84582786	     43.29659380	      1.67528704	     -8.69434251	      0.75566812	      1.45158853	     11.73979192	      0.00000000
     18.30000000	      3.39623180	    -37.07178196	      5.01797878	     -0.10432024	      0.82705008	     -1.19252488	     78.75890525	    -21.67459647	    -18.51439299	     50.60989792	      2.75108887	      9.45283224	      0.88330935	      4.12163831	      4.50377967	      0.00000000	     74.37525322	    -15.72911402	    -19.54502325	     43.06804949	      2.18439129	     -9.21831019	      0.75167927	      1.00107465	      9.93860272	      0.00000000
     18.30500000	      3.05386806	    -37.22456108	      4.86742056	     -0.10504133	      0.82715202	     -1.19221489	     78.95092835	    -21.24080494	    -18.10687390	     50.43692667	      2.78247585	      9.01404543	      0.88029044	      4.01834455	      4.59088556	      0.00000000	     74.49068155	    -15.99210311	    -19.39740685	     43.02977325	      2.26134484	     -8.67486367	      0.75101122	      0.94502040	     10.29014439	      0.00000000
     18.31000000	      2.96929070	    -37.14259628	      4.89666625	     -0.10454619	      0.82803891	     -1.19228648	     78.69613565	    -21.21648126	    -18.30837985	     50.20512095	      2.77125619	      9.43032902	      0.87624466	      3.92297267	      4.31215160	      0.00000000	     74.16966706	    -16.00201417	    -19.88526153	     42.79037663	      2.16846164	     -9.19203441	      0.74683296	      0.89621562	     10.02634724	      0.00000000
     18.31500000	      3.02729914	    -37.33067416	      4.96696594	     -0.10484650	      0.82850099	     -1.19234640	     78.83622743	    -21.23883440	    -18.27632842	     50.07143593	      2.81275693	      9.41982497	      0.87391142	      3.84934764	      4.28435785	      0.00000000	     74.28740142	    -15.86539023	    -19.86217576	     42.60311824	      2.13420162	     -9.14944449	      0.74356468	      0.81865462	      9.98401410	      0.00000000
     18.32000000	      3.05505549	    -36.94770420	      4.86845878	     -0.10438952	      0.82957825	     -1.19234093	     78.12685051	    -21.23069953	    -18.70478147	     49.71145974	      2.70031372	      9.42774313	      0.86762865	      3.78572608	      4.47749763	      0.00000000	     73.69125389	    -15.74073284	    -19.83217299	     42.20839582	      2.10670342	     -9.15044170	      0.73667548	      0.66449042	      9.89278965	      0.00000000
     18.32500000	      2.67155878	    -37.52241146	      4.83698677	     -0.10577285	      0.82943870	     -1.19207687	     78.91149767	    -20.74432484	    -17.84789238	     49.60912508	      2.88492838	      8.93337066	      0.86584257	      3.63779730	      4.37810733	      0.00000000	     74.27567899	    -16.00316062	    -19.72488192	     42.24978977	      2.17015834	     -8.52356511	      0.73739794	      0.68406658	     10.32911843	      0.00000000
     18.33000000	      2.40499861	    -36.92709954	      5.06770889	     -0.10465102	      0.83094104	     -1.19228747	     78.10329295	    -20.69225222	    -17.77161007	     49.20084223	      2.92916584	      9.39448642	      0.85871669	      3.51662555	      3.98943879	      0.00000000	     73.06556819	    -15.96556338	    -20.81562501	     41.69309795	      2.01332939	     -9.10604752	      0.72768183	      0.56599202	     10.07092020	      0.00000000
     18.33500000	      2.44867835	    -36.89328410	      4.87441918	     -0.10512758	      0.83152937	     -1.19211248	     77.85380540	    -20.55518713	    -17.96047699	     48.90406809	      2.83865446	      8.91921511	      0.85353701	      3.47708622	      4.51130649	      0.00000000	     73.02344770	    -15.86510932	    -20.18745122	     41.41320372	      2.09714610	     -8.50173811	      0.72279676	      0.43809244	     10.23119316	      0.00000000
     18.34000000	      2.06077946	    -36.80180800	      5.11045650	     -0.10462547	      0.83260655	     -1.19226784	     77.74401125	    -20.32686569	    -17.56086016	     48.61438238	      2.89667161	      9.35430279	      0.84848104	      3.31531710	      3.93409291	      0.00000000	     72.42482530	    -15.97195893	    -21.26250033	     41.05550652	      1.98255567	     -9.06601818	      0.71655376	      0.40446364	     10.03397977	      0.00000000
     18.34500000	      2.13435402	    -36.89697983	      4.84023445	     -0.10472736	      0.83343930	     -1.19218720	     77.49865701	    -20.23042643	    -18.03743705	     48.26042559	      2.84676370	      9.33928568	      0.84230332	      3.22232775	      4.00127134	      0.00000000	     72.52733653	    -15.91429190	    -20.81497413	     40.82820611	      2.01086386	     -9.00855065	      0.71258662	      0.30655545	      9.86462436	      0.00000000
     18.35000000	      2.13726885	    -36.81863729	      4.78540640	     -0.10462473	      0.83429740	     -1.19224809	     77.19740370	    -20.17452565	    -18.22827719	     47.95633071	      2.82244709	      9.33633056	      0.83699587	      3.10003292	      3.95561459	      0.00000000	     72.29806611	    -15.80406035	    -20.77390664	     40.52205769	      1.98092384	     -8.96280381	      0.70724333	      0.19788152	      9.76822567	      0.00000000
